<svg width="24" height="24" viewBox="0 0 24 24" fill="none" xmlns="http://www.w3.org/2000/svg">
<circle cx="12" cy="12" r="11" fill="#D66879"/>
<path fill-rule="evenodd" clip-rule="evenodd" d="M12.5492 6.50001C12.5492 6.19626 12.303 5.95001 11.9992 5.95001C11.6955 5.95001 11.4492 6.19626 11.4492 6.50001C11.4492 9.23382 9.23303 11.45 6.49922 11.45C6.19546 11.45 5.94922 11.6963 5.94922 12C5.94922 12.3038 6.19546 12.55 6.49922 12.55C9.23303 12.55 11.4492 14.7662 11.4492 17.5C11.4492 17.8038 11.6955 18.05 11.9992 18.05C12.303 18.05 12.5492 17.8038 12.5492 17.5C12.5492 14.7662 14.7654 12.55 17.4992 12.55C17.803 12.55 18.0492 12.3038 18.0492 12C18.0492 11.6963 17.803 11.45 17.4992 11.45C14.7654 11.45 12.5492 9.23382 12.5492 6.50001Z" fill="white"/>
</svg>
