<svg width="118" height="48" viewBox="0 0 118 48" fill="none" xmlns="http://www.w3.org/2000/svg">
<path fill-rule="evenodd" clip-rule="evenodd" d="M0 23.9743C0 37.1961 10.7789 48 24.0334 48C37.2878 48 48.1183 37.1961 48.0667 23.9743C48.0667 10.7524 37.2878 0 24.0334 0C10.7789 0 0 10.7524 0 23.9743ZM2.11452 24.0257C2.11452 11.9357 11.9651 2.16077 24.0334 2.16077C36.1016 2.16077 45.9522 11.9357 45.9522 24.0257C45.9522 36.1158 36.1532 45.8907 24.0334 45.8907C11.9135 45.8907 2.11452 36.0643 2.11452 24.0257ZM64.8294 22.0191L61.3224 17.0802L64.7263 13.4789H61.6834L58.7437 16.6686V9.46606H56.4229V22.0706H58.7437V19.8069L59.7236 18.778L61.9929 22.0191H64.8294ZM69.624 16.7719L67.5095 17.0806C66.0654 17.2864 64.9308 18.161 64.8792 19.653C64.8792 20.9906 66.0139 22.2253 67.819 22.2253C69.1083 22.2253 69.9335 21.608 70.3461 20.9391C70.3461 21.2993 70.3976 21.7623 70.4492 21.9681H72.5637C72.5122 21.7108 72.4606 21.0935 72.4606 20.6305V16.4118C72.4606 14.7141 71.4807 13.1707 68.7473 13.1707C66.478 13.1707 65.2403 14.6626 65.0855 16.0002L67.1485 16.4118C67.2516 15.6401 67.7674 15.0227 68.7989 15.0227C69.7788 15.0227 70.2429 15.5372 70.2429 16.1546C70.2429 16.4633 70.0882 16.7205 69.624 16.7719ZM70.2429 18.2125V18.5726C70.2429 20.0645 69.3662 20.5276 68.3863 20.579C67.6127 20.579 67.2516 20.116 67.2516 19.6015C67.2516 18.9327 67.7674 18.624 68.3347 18.5211L70.2429 18.2125ZM79.7335 21.0933C79.2693 21.9165 78.2894 22.2252 77.3611 22.2252C75.2981 22.2252 74.1119 20.7332 74.1119 18.8811V13.4792H76.4327V18.4181C76.4327 19.3956 76.8969 20.1158 77.9799 20.1158C79.0114 20.1158 79.5787 19.447 79.5787 18.4181V13.4277H81.8995V20.4245C81.8995 21.0933 81.9511 21.6592 82.0027 21.9679H79.785C79.785 21.9321 79.7788 21.8588 79.7706 21.7633L79.7706 21.7629C79.7553 21.5842 79.7335 21.3279 79.7335 21.0933ZM93.0396 18.9841L91.1829 13.4792H88.759L86.9023 18.9841L85.3035 13.4792H82.8796L85.613 22.0194H87.9854L89.9452 16.2059L91.9566 22.0194H94.2774L96.9592 13.4792H94.6384L93.0396 18.9841ZM105.262 19.5499C104.85 21.0419 103.457 22.2766 101.343 22.2766C98.9702 22.2766 96.9072 20.5788 96.9072 17.6978C96.9072 14.9711 98.9186 13.2219 101.136 13.2219C103.767 13.2219 105.365 14.9197 105.365 17.6464C105.365 17.8656 105.339 18.1107 105.324 18.2528C105.318 18.3108 105.314 18.3517 105.314 18.3666H99.1765C99.228 19.4985 100.208 20.3216 101.343 20.3216C102.426 20.3216 102.993 19.8071 103.302 19.0354L105.262 19.5499ZM103.096 16.7718C103.044 15.8972 102.529 15.074 101.188 15.074C100.002 15.074 99.3312 16.0001 99.2796 16.7718H103.096ZM106.707 9.46606V22.0191H109.028V9.46606H106.707ZM112.945 17.0806L115.06 16.7719C115.524 16.7205 115.679 16.4633 115.679 16.1546C115.679 15.5372 115.215 15.0227 114.235 15.0227C113.203 15.0227 112.688 15.6401 112.584 16.4118L110.521 16.0002C110.676 14.6626 111.914 13.1707 114.183 13.1707C116.917 13.1707 117.897 14.7141 117.897 16.4118V20.6305C117.897 21.0935 117.948 21.7108 118 21.9681H115.885C115.834 21.7623 115.782 21.2993 115.782 20.9391C115.369 21.608 114.544 22.2253 113.255 22.2253C111.45 22.2253 110.315 20.9906 110.315 19.653C110.367 18.161 111.501 17.2864 112.945 17.0806ZM115.679 18.5726V18.2125L113.771 18.5211C113.203 18.624 112.688 18.9327 112.688 19.6015C112.688 20.116 113.049 20.579 113.822 20.579C114.802 20.5276 115.679 20.0645 115.679 18.5726ZM56.4719 29.0161V40.7974H58.8442V36.6817C59.2568 37.2476 60.1336 37.7106 61.3198 37.7106C63.7438 37.7106 65.3425 35.8071 65.3425 33.2347C65.3425 30.7138 63.8985 28.8103 61.3714 28.8103C60.082 28.8103 59.1021 29.3762 58.7411 30.045V29.0161H56.4719ZM58.7411 33.2862C58.7411 31.7428 59.721 30.8682 60.9072 30.8682C62.0934 30.8682 63.0217 31.7428 63.0217 33.2862C63.0217 34.8296 62.0934 35.7042 60.9072 35.7042C59.721 35.7042 58.7411 34.7781 58.7411 33.2862ZM74.9368 33.2861C74.9368 35.9099 73.0286 37.8134 70.4499 37.8134C67.8712 37.8134 65.963 35.9099 65.963 33.2861C65.963 30.6623 67.8712 28.7588 70.4499 28.7588C73.0286 28.7588 74.9368 30.6623 74.9368 33.2861ZM72.616 33.2861C72.616 31.6913 71.5845 30.8681 70.4499 30.8681C69.3153 30.8681 68.2838 31.6913 68.2838 33.2861C68.2838 34.881 69.3153 35.7041 70.4499 35.7041C71.5845 35.7041 72.616 34.881 72.616 33.2861ZM84.632 37.5562L81.125 32.6173L84.5289 29.016H81.486L78.5463 32.2057V25.0032H76.2255V37.5562H78.5463V35.344L79.5262 34.3151L81.7955 37.5562H84.632ZM92.7294 35.0868C92.3168 36.5787 90.9243 37.8134 88.8098 37.8134C86.4374 37.8134 84.3744 36.1157 84.3744 33.2347C84.3744 30.508 86.3858 28.7588 88.6035 28.7588C91.2338 28.7588 92.8325 30.4565 92.8325 33.1832C92.8325 33.4024 92.8065 33.6476 92.7915 33.7897L92.7859 33.843C92.7847 33.8548 92.7836 33.8652 92.7828 33.8741C92.7816 33.8876 92.781 33.8976 92.781 33.9035H86.6437C86.6953 35.0353 87.6752 35.8585 88.8098 35.8585C89.8928 35.8585 90.4601 35.344 90.7696 34.5723L92.7294 35.0868ZM90.5633 32.3086C90.5117 31.434 89.996 30.6109 88.6551 30.6109C87.4689 30.6109 86.7984 31.5369 86.7468 32.3086H90.5633ZM89.4287 27.9871H87.572L89.1708 25.3633H91.8011L89.4287 27.9871ZM35.1735 22.4824C36.2565 22.2252 37.649 22.1737 38.6289 22.2252L38.7837 20.0644C36.3597 19.9101 34.7093 20.2187 33.6263 20.6818C33.2653 17.9551 31.4602 16.103 31.357 16.0001L29.8098 17.4921C29.8098 17.4921 30.996 18.6753 31.357 20.4245C28.8299 19.1384 26.0449 20.013 25.8902 20.0644L26.5607 22.1223C26.5607 22.1223 27.7469 21.7622 29.0362 21.9679C26.9733 22.7911 25.6839 24.5403 25.2198 25.7236L27.2311 26.4953C27.2336 26.4904 27.2377 26.4813 27.2437 26.4684C27.3634 26.2063 28.2076 24.3593 30.2224 23.82C28.4689 26.3409 25.7871 31.4856 25.2198 39.2541H24.2914C23.621 28.656 19.7014 21.9165 17.5353 18.9326C20.7844 19.2413 22.7958 21.7622 22.8989 21.9165L24.6009 20.6303C24.4977 20.476 22.3316 17.7493 18.773 16.9776C20.836 16.3602 22.8474 16.9776 22.9505 17.029L23.621 14.9712C23.6119 14.9689 23.5958 14.9644 23.5731 14.9581C23.0826 14.8212 19.5061 13.8229 16.4007 15.6914C16.7617 13.685 18.2573 12.7075 18.3605 12.656L17.7931 11.73L17.2774 10.804L17.2622 10.814C17.0041 10.9825 14.6372 12.5287 14.2346 15.6914C12.2449 14.7463 9.86372 14.8863 9.369 14.9154L9.36896 14.9154C9.3251 14.918 9.29608 14.9197 9.28348 14.9197L9.54135 17.029C9.54471 17.029 9.55644 17.0282 9.57587 17.0267L9.57595 17.0267C9.85426 17.0059 11.7089 16.867 13.2031 17.4921C9.95394 18.9326 8.50987 22.0194 8.4583 22.1737L10.4181 23.0483C10.4181 22.9969 11.5011 20.7847 13.7704 19.6014C13.461 21.3506 13.5125 24.0773 14.9566 27.9872L16.968 27.267C15.7302 23.8715 15.6786 21.5564 15.8333 20.1673C16.5038 21.0933 17.329 22.3795 18.2057 24.1287C19.8045 27.267 21.7128 32.3602 22.1769 39.2541H19.5467V41.4149H29.8614V39.2541H27.4374C27.9532 32.3088 30.3771 27.6271 31.9244 25.2605C31.9759 26.7525 31.8728 28.8104 31.0476 31.2284L33.059 31.9486C34.2452 28.7075 34.142 25.9808 33.8842 24.2831C35.5505 25.2265 36.391 27.3469 36.6116 27.9035C36.6436 27.9843 36.6626 28.0322 36.6691 28.0387L38.7321 27.4213C38.6805 27.2155 37.7006 24.0258 35.1735 22.4824ZM32.6463 10.3924C32.6463 12.5532 30.8928 14.3024 28.7267 14.3024C26.5606 14.3024 24.8071 12.5532 24.8071 10.3924C24.8071 8.23162 26.5606 6.48242 28.7267 6.48242C30.8928 6.48242 32.6463 8.23162 32.6463 10.3924ZM30.4802 10.3924C30.4802 9.4149 29.7066 8.64319 28.7267 8.64319C27.7468 8.64319 26.9732 9.4149 26.9732 10.3924C26.9732 11.3699 27.7468 12.1416 28.7267 12.1416C29.7066 12.1416 30.4802 11.3699 30.4802 10.3924Z" fill="black"/>
</svg>
